<svg width="132" height="22" viewBox="0 0 132 22" fill="none" xmlns="http://www.w3.org/2000/svg">
<path d="M0.512 22V5.76H13.28C13.952 5.76 14.568 5.93733 15.128 6.292C15.7067 6.628 16.164 7.076 16.5 7.636C16.836 8.196 17.004 8.82133 17.004 9.512V22H13.672V9.624C13.672 9.47467 13.616 9.35333 13.504 9.26C13.4107 9.148 13.2987 9.092 13.168 9.092H4.376C4.24533 9.092 4.124 9.148 4.012 9.26C3.9 9.35333 3.844 9.47467 3.844 9.624V22H0.512ZM19.9521 22V5.76H23.2841V22H19.9521ZM19.9521 3.8V0.439999H23.2841V3.8H19.9521ZM26.5433 22V5.76H39.3113C39.9833 5.76 40.5993 5.93733 41.1593 6.292C41.7379 6.628 42.1953 7.076 42.5312 7.636C42.8673 8.196 43.0353 8.82133 43.0353 9.512V22H39.7033V9.624C39.7033 9.47467 39.6473 9.35333 39.5353 9.26C39.4419 9.148 39.3299 9.092 39.1993 9.092H30.4073C30.2766 9.092 30.1553 9.148 30.0433 9.26C29.9313 9.35333 29.8753 9.47467 29.8753 9.624V22H26.5433ZM49.2698 22C48.5792 22 47.9538 21.832 47.3938 21.496C46.8338 21.1413 46.3765 20.684 46.0218 20.124C45.6858 19.564 45.5178 18.9387 45.5178 18.248V9.512C45.5178 8.82133 45.6858 8.196 46.0218 7.636C46.3765 7.076 46.8338 6.628 47.3938 6.292C47.9538 5.93733 48.5792 5.76 49.2698 5.76H58.2578C58.9672 5.76 59.6018 5.93733 60.1618 6.292C60.7218 6.628 61.1698 7.076 61.5058 7.636C61.8418 8.196 62.0098 8.82133 62.0098 9.512V15.56H48.8498V18.136C48.8498 18.2853 48.8965 18.416 48.9898 18.528C49.1018 18.6213 49.2325 18.668 49.3818 18.668H62.0098V22H49.2698ZM48.8498 12.508H58.6778V9.624C58.6778 9.47467 58.6218 9.35333 58.5098 9.26C58.4165 9.148 58.2952 9.092 58.1458 9.092H49.3818C49.2325 9.092 49.1018 9.148 48.9898 9.26C48.8965 9.35333 48.8498 9.47467 48.8498 9.624V12.508ZM68.7126 22C68.0219 22 67.3872 21.832 66.8086 21.496C66.2486 21.1413 65.8006 20.684 65.4646 20.124C65.1286 19.564 64.9606 18.9387 64.9606 18.248V0.691999H68.2926V5.76H74.7886V9.092H68.2926V18.136C68.2926 18.2853 68.3392 18.416 68.4326 18.528C68.5446 18.6213 68.6752 18.668 68.8246 18.668H74.7886V22H68.7126ZM80.7425 22C80.0518 22 79.4265 21.832 78.8665 21.496C78.3065 21.1413 77.8492 20.684 77.4945 20.124C77.1585 19.564 76.9905 18.9387 76.9905 18.248V9.512C76.9905 8.82133 77.1585 8.196 77.4945 7.636C77.8492 7.076 78.3065 6.628 78.8665 6.292C79.4265 5.93733 80.0518 5.76 80.7425 5.76H89.7305C90.4398 5.76 91.0745 5.93733 91.6345 6.292C92.1945 6.628 92.6425 7.076 92.9785 7.636C93.3145 8.196 93.4825 8.82133 93.4825 9.512V15.56H80.3225V18.136C80.3225 18.2853 80.3692 18.416 80.4625 18.528C80.5745 18.6213 80.7052 18.668 80.8545 18.668H93.4825V22H80.7425ZM80.3225 12.508H90.1505V9.624C90.1505 9.47467 90.0945 9.35333 89.9825 9.26C89.8892 9.148 89.7678 9.092 89.6185 9.092H80.8545C80.7052 9.092 80.5745 9.148 80.4625 9.26C80.3692 9.35333 80.3225 9.47467 80.3225 9.624V12.508ZM99.5823 22C98.8917 22 98.2663 21.832 97.7063 21.496C97.1463 21.1413 96.689 20.684 96.3343 20.124C95.9983 19.564 95.8303 18.9387 95.8303 18.248V9.512C95.8303 8.82133 95.9983 8.196 96.3343 7.636C96.689 7.076 97.1463 6.628 97.7063 6.292C98.2663 5.93733 98.8917 5.76 99.5823 5.76H108.57C109.28 5.76 109.914 5.93733 110.474 6.292C111.034 6.628 111.482 7.076 111.818 7.636C112.154 8.196 112.322 8.82133 112.322 9.512V15.56H99.1623V18.136C99.1623 18.2853 99.209 18.416 99.3023 18.528C99.4143 18.6213 99.545 18.668 99.6943 18.668H112.322V22H99.5823ZM99.1623 12.508H108.99V9.624C108.99 9.47467 108.934 9.35333 108.822 9.26C108.729 9.148 108.608 9.092 108.458 9.092H99.6943C99.545 9.092 99.4143 9.148 99.3023 9.26C99.209 9.35333 99.1623 9.47467 99.1623 9.624V12.508ZM115.301 22V5.76H128.069C128.741 5.76 129.357 5.93733 129.917 6.292C130.496 6.628 130.953 7.076 131.289 7.636C131.625 8.196 131.793 8.82133 131.793 9.512V22H128.461V9.624C128.461 9.47467 128.405 9.35333 128.293 9.26C128.2 9.148 128.088 9.092 127.957 9.092H119.165C119.034 9.092 118.913 9.148 118.801 9.26C118.689 9.35333 118.633 9.47467 118.633 9.624V22H115.301Z" fill="#33323D"/>
</svg>
