<svg width="188" height="31" viewBox="0 0 188 31" fill="none" xmlns="http://www.w3.org/2000/svg">
<path d="M0.16 31V7.8H18.4C19.36 7.8 20.24 8.05333 21.04 8.56C21.8667 9.04 22.52 9.68 23 10.48C23.48 11.28 23.72 12.1733 23.72 13.16V31H18.96V13.32C18.96 13.1067 18.88 12.9333 18.72 12.8C18.5867 12.64 18.4267 12.56 18.24 12.56H5.68C5.49333 12.56 5.32 12.64 5.16 12.8C5 12.9333 4.92 13.1067 4.92 13.32V31H0.16ZM27.9316 31V7.8H32.6916V31H27.9316ZM27.9316 5V0.199998H32.6916V5H27.9316ZM37.3475 31V7.8H55.5875C56.5475 7.8 57.4275 8.05333 58.2275 8.56C59.0542 9.04 59.7075 9.68 60.1875 10.48C60.6675 11.28 60.9075 12.1733 60.9075 13.16V31H56.1475V13.32C56.1475 13.1067 56.0675 12.9333 55.9075 12.8C55.7742 12.64 55.6142 12.56 55.4275 12.56H42.8675C42.6808 12.56 42.5075 12.64 42.3475 12.8C42.1875 12.9333 42.1075 13.1067 42.1075 13.32V31H37.3475ZM69.8141 31C68.8274 31 67.9341 30.76 67.1341 30.28C66.3341 29.7733 65.6807 29.12 65.1741 28.32C64.6941 27.52 64.4541 26.6267 64.4541 25.64V13.16C64.4541 12.1733 64.6941 11.28 65.1741 10.48C65.6807 9.68 66.3341 9.04 67.1341 8.56C67.9341 8.05333 68.8274 7.8 69.8141 7.8H82.6541C83.6674 7.8 84.5741 8.05333 85.3741 8.56C86.1741 9.04 86.8141 9.68 87.2941 10.48C87.7741 11.28 88.0141 12.1733 88.0141 13.16V21.8H69.2141V25.48C69.2141 25.6933 69.2807 25.88 69.4141 26.04C69.5741 26.1733 69.7607 26.24 69.9741 26.24H88.0141V31H69.8141ZM69.2141 17.44H83.2541V13.32C83.2541 13.1067 83.1741 12.9333 83.0141 12.8C82.8807 12.64 82.7074 12.56 82.4941 12.56H69.9741C69.7607 12.56 69.5741 12.64 69.4141 12.8C69.2807 12.9333 69.2141 13.1067 69.2141 13.32V17.44ZM97.5894 31C96.6027 31 95.696 30.76 94.8694 30.28C94.0694 29.7733 93.4294 29.12 92.9494 28.32C92.4694 27.52 92.2294 26.6267 92.2294 25.64V0.559999H96.9894V7.8H106.269V12.56H96.9894V25.48C96.9894 25.6933 97.056 25.88 97.1894 26.04C97.3494 26.1733 97.536 26.24 97.7494 26.24H106.269V31H97.5894ZM114.775 31C113.788 31 112.895 30.76 112.095 30.28C111.295 29.7733 110.642 29.12 110.135 28.32C109.655 27.52 109.415 26.6267 109.415 25.64V13.16C109.415 12.1733 109.655 11.28 110.135 10.48C110.642 9.68 111.295 9.04 112.095 8.56C112.895 8.05333 113.788 7.8 114.775 7.8H127.615C128.628 7.8 129.535 8.05333 130.335 8.56C131.135 9.04 131.775 9.68 132.255 10.48C132.735 11.28 132.975 12.1733 132.975 13.16V21.8H114.175V25.48C114.175 25.6933 114.242 25.88 114.375 26.04C114.535 26.1733 114.722 26.24 114.935 26.24H132.975V31H114.775ZM114.175 17.44H128.215V13.32C128.215 13.1067 128.135 12.9333 127.975 12.8C127.842 12.64 127.668 12.56 127.455 12.56H114.935C114.722 12.56 114.535 12.64 114.375 12.8C114.242 12.9333 114.175 13.1067 114.175 13.32V17.44ZM141.689 31C140.702 31 139.809 30.76 139.009 30.28C138.209 29.7733 137.556 29.12 137.049 28.32C136.569 27.52 136.329 26.6267 136.329 25.64V13.16C136.329 12.1733 136.569 11.28 137.049 10.48C137.556 9.68 138.209 9.04 139.009 8.56C139.809 8.05333 140.702 7.8 141.689 7.8H154.529C155.542 7.8 156.449 8.05333 157.249 8.56C158.049 9.04 158.689 9.68 159.169 10.48C159.649 11.28 159.889 12.1733 159.889 13.16V21.8H141.089V25.48C141.089 25.6933 141.156 25.88 141.289 26.04C141.449 26.1733 141.636 26.24 141.849 26.24H159.889V31H141.689ZM141.089 17.44H155.129V13.32C155.129 13.1067 155.049 12.9333 154.889 12.8C154.756 12.64 154.582 12.56 154.369 12.56H141.849C141.636 12.56 141.449 12.64 141.289 12.8C141.156 12.9333 141.089 13.1067 141.089 13.32V17.44ZM164.144 31V7.8H182.384C183.344 7.8 184.224 8.05333 185.024 8.56C185.851 9.04 186.504 9.68 186.984 10.48C187.464 11.28 187.704 12.1733 187.704 13.16V31H182.944V13.32C182.944 13.1067 182.864 12.9333 182.704 12.8C182.571 12.64 182.411 12.56 182.224 12.56H169.664C169.478 12.56 169.304 12.64 169.144 12.8C168.984 12.9333 168.904 13.1067 168.904 13.32V31H164.144Z" fill="white"/>
</svg>
